<svg xmlns="http://www.w3.org/2000/svg" width="32" height="32" viewBox="0 0 32 32" fill="none">
  <defs>
    <linearGradient id="premium-grad" x1="0%" y1="0%" x2="100%" y2="100%">
      <stop offset="0%" stop-color="#2F6B57"/>
      <stop offset="100%" stop-color="#11140F"/>
    </linearGradient>
    <filter id="glow" x="-20%" y="-20%" width="140%" height="140%">
      <feGaussianBlur stdDeviation="1" result="blur" />
      <feComposite in="SourceGraphic" in2="blur" operator="over" />
    </filter>
  </defs>
  <rect width="32" height="32" rx="8" fill="url(#premium-grad)"/>
  
  <!-- A stylized chef hat / brain hybrid representing AI Cooking -->
  <path d="M16 7C13 7 11 8.5 10.5 11.5C10 10.5 8.5 10 7.5 10.5C6.5 11 6 12.5 6.5 13.5C7.5 15.5 10.5 16 10.5 16V22C10.5 23 11.5 24 12.5 24H19.5C20.5 24 21.5 23 21.5 22V16C21.5 16 24.5 15.5 25.5 13.5C26 12.5 25.5 11 24.5 10.5C23.5 10 22 10.5 21.5 11.5C21 8.5 19 7 16 7Z" fill="#D9A327" filter="url(#glow)"/>
  
  <!-- AI Sparkles -->
  <path d="M25 6L25.5 7.5L27 8L25.5 8.5L25 10L24.5 8.5L23 8L24.5 7.5L25 6Z" fill="#FFE7A3"/>
  <path d="M7 6L7.3 7L8.3 7.3L7.3 7.6L7 8.6L6.7 7.6L5.7 7.3L6.7 7L7 6Z" fill="#FFE7A3"/>
</svg>